<svg width="64" height="64" viewBox="0 0 64 64" fill="none" xmlns="http://www.w3.org/2000/svg">
  <circle cx="32" cy="32" r="30" fill="url(#gradient)" stroke="url(#gradient2)" stroke-width="2"/>
  <path d="M32 2 C32 2, 32 62, 32 62" stroke="white" stroke-width="1" opacity="0.3"/>
  <path d="M32 2 C32 2, 32 62, 32 62" stroke="white" stroke-width="1" opacity="0.3" transform="rotate(90 32 32)"/>
  <ellipse cx="32" cy="32" rx="25" ry="8" stroke="white" stroke-width="1" opacity="0.3" fill="none"/>
  <ellipse cx="32" cy="32" rx="15" ry="4" stroke="white" stroke-width="1" opacity="0.3" fill="none"/>
  <line x1="32" y1="12" x2="32" y2="52" stroke="white" stroke-width="2" stroke-linecap="round"/>
  <line x1="12" y1="32" x2="52" y2="32" stroke="white" stroke-width="2" stroke-linecap="round"/>
  <polygon points="32,8 28,16 36,16" fill="white"/>
  <polygon points="32,56 28,48 36,48" fill="white"/>
  <polygon points="8,32 16,28 16,36" fill="white"/>
  <polygon points="56,32 48,28 48,36" fill="white"/>
  <circle cx="32" cy="32" r="3" fill="white"/>
  <defs>
    <linearGradient id="gradient" x1="0%" y1="0%" x2="100%" y2="100%">
      <stop offset="0%" style="stop-color:#3B82F6;stop-opacity:1" />
      <stop offset="100%" style="stop-color:#8B5CF6;stop-opacity:1" />
    </linearGradient>
    <linearGradient id="gradient2" x1="0%" y1="0%" x2="100%" y2="100%">
      <stop offset="0%" style="stop-color:#1D4ED8;stop-opacity:1" />
      <stop offset="100%" style="stop-color:#7C3AED;stop-opacity:1" />
    </linearGradient>
  </defs>
</svg>
